<?xml version="1.0" encoding="UTF-8"?> <svg xmlns="http://www.w3.org/2000/svg" width="400" height="200" viewBox="0 0 400 200" fill="none"><g clip-path="url(#clip0_6_2)"><mask id="mask0_6_2" style="mask-type:luminance" maskUnits="userSpaceOnUse" x="66" y="2" width="281" height="182"><path d="M346.052 2.80537H66.6227V183.67H346.052V2.80537Z" fill="white"></path></mask><g mask="url(#mask0_6_2)"><path d="M110.064 142.692C110.064 142.692 103.085 146.715 115.049 148.069C129.534 149.702 136.95 149.471 152.914 146.481C152.914 146.481 157.119 149.084 162.991 151.335C127.166 166.525 81.9326 150.471 110.064 142.692ZM105.687 122.894C105.687 122.894 97.8525 128.626 109.813 129.856C125.297 131.445 137.524 131.566 158.673 127.546C158.673 127.546 161.586 130.474 166.197 132.092C122.928 144.6 74.7231 133.062 105.687 122.894Z" fill="#5582A1"></path><path d="M142.571 89.2924C151.401 99.3365 140.251 108.381 140.251 108.381C140.251 108.381 162.647 96.9497 152.37 82.623C142.759 69.2663 135.392 62.6412 175.281 39.7639C175.278 39.7491 112.666 55.2146 142.571 89.2924Z" fill="#F49734"></path><path d="M189.921 157.342C189.921 157.342 195.091 161.562 184.222 164.813C163.553 171.006 98.2113 172.869 80.0517 165.058C73.5241 162.254 85.769 158.356 89.6144 157.54C93.6333 156.676 95.9238 156.83 95.9238 156.83C88.6665 151.775 49.0253 166.753 75.7847 171.05C148.785 182.762 208.846 165.8 189.921 157.342ZM113.429 102.374C113.429 102.374 80.1893 110.185 101.653 113.019C110.719 114.219 128.786 113.944 145.624 112.542C159.376 111.404 173.194 108.952 173.194 108.952C173.194 108.952 168.35 111.016 164.83 113.373C131.077 122.155 65.8632 118.073 84.6477 109.091C100.517 101.51 113.429 102.374 113.429 102.374ZM173.053 135.343C207.366 117.718 191.494 100.771 180.421 103.051C177.712 103.607 176.495 104.098 176.495 104.098C176.495 104.098 177.509 102.543 179.423 101.865C201.338 94.2553 218.176 124.328 172.351 136.251C172.366 136.221 172.895 135.76 173.053 135.343Z" fill="#5582A1"></path><path d="M152.367 2.80537C152.367 2.80537 171.37 21.6159 134.345 50.5179C104.658 73.7205 127.569 86.9381 134.33 102.052C116.993 86.5832 104.284 72.9663 112.804 60.3017C125.327 41.6893 160.031 32.6627 152.367 2.80537Z" fill="#F49734"></path><path d="M116.792 183.132C149.721 185.211 200.309 181.976 201.508 166.555C201.508 166.555 199.203 172.393 174.297 177.031C146.183 182.269 111.512 181.653 90.951 178.293C90.9361 178.311 95.1583 181.745 116.792 183.132ZM259.109 156.712C256.008 159.376 252.722 160.87 249.779 160.87C245.575 160.87 243.299 158.374 243.299 154.384C243.299 150.054 245.745 146.895 255.497 146.895H259.109V156.712ZM267.676 166.277V136.668C267.676 129.102 263.316 124.113 252.802 124.113C246.666 124.113 241.293 125.606 236.915 127.517L238.177 132.755C241.619 131.507 246.074 130.335 250.452 130.335C256.51 130.335 259.112 132.755 259.112 137.744V141.489H256.089C241.371 141.489 234.736 147.126 234.736 155.632C234.736 162.949 239.113 167.111 247.351 167.111C252.647 167.111 256.603 164.955 260.296 161.781L260.966 166.28H267.676V166.277ZM296.286 166.277H285.602L272.738 124.867H282.068L290.057 150.317L291.834 157.96C295.867 146.898 298.717 135.668 300.152 124.867H309.234C306.8 138.501 302.425 153.461 296.286 166.277ZM337.315 156.712C334.199 159.376 330.913 160.87 327.97 160.87C323.766 160.87 321.491 158.374 321.491 154.384C321.491 150.054 323.937 146.895 333.688 146.895H337.3L337.315 156.712ZM345.882 166.277V136.668C345.882 129.102 341.504 124.113 330.99 124.113C324.855 124.113 319.463 125.606 315.089 127.517L316.35 132.755C319.792 131.507 324.263 130.335 328.625 130.335C334.683 130.335 337.285 132.755 337.285 137.744V141.489H334.262C319.544 141.489 312.909 147.126 312.909 155.632C312.909 162.949 317.286 167.111 325.524 167.111C330.82 167.111 334.776 164.955 338.484 161.781L339.154 166.28H345.882V166.277ZM225.325 173.319C222.879 176.847 218.938 179.651 214.608 181.222L210.371 176.291C213.657 174.611 216.477 171.932 217.784 169.421C218.92 167.188 219.39 164.307 219.39 157.433V110.138H228.501V156.771C228.501 165.969 227.768 169.684 225.325 173.319Z" fill="#5582A1"></path></g></g><defs><clipPath id="clip0_6_2"><rect width="400" height="200" fill="white"></rect></clipPath></defs></svg> 